<?xml version="1.0" encoding="utf-8"?>

<!-- Uploaded to: SVG Repo, www.svgrepo.com, Generator: SVG Repo Mixer Tools -->
<svg width="50px" height="50px" viewBox="0 0 24 24" fill="#fff" xmlns="http://www.w3.org/2000/svg">
<g id="Interface / Drag_Vertical">
<g id="Vector">
<path d="M14 18C14 18.5523 14.4477 19 15 19C15.5523 19 16 18.5523 16 18C16 17.4477 15.5523 17 15 17C14.4477 17 14 17.4477 14 18Z" stroke="#4f8a8b" stroke-width="2" stroke-linecap="round" stroke-linejoin="round"/>
<path d="M14 12C14 12.5523 14.4477 13 15 13C15.5523 13 16 12.5523 16 12C16 11.4477 15.5523 11 15 11C14.4477 11 14 11.4477 14 12Z" stroke="#4f8a8b" stroke-width="2" stroke-linecap="round" stroke-linejoin="round"/>
<path d="M14 6C14 6.55228 14.4477 7 15 7C15.5523 7 16 6.55228 16 6C16 5.44772 15.5523 5 15 5C14.4477 5 14 5.44772 14 6Z" stroke="#4f8a8b" stroke-width="2" stroke-linecap="round" stroke-linejoin="round"/>
</g>
</g>
</svg>